# xmcd
#
# Track frame offsets: 
#        150
#        14346
#        32046
#        50100
#        67908
#        85510
#        103221
#        122187
#        138204
#        154046
#        174388
#        193818
#        209890
#        225685
#        246380
#
# Disc length: 3479 seconds
#
# Revision: 0
# Processed by: cddbd v1.5.2PL0 Copyright (c) Steve Scherf et al.
# Submitted via: ExactAudioCopy v1.0b1
#
DISCID=d50d950f
DTITLE=Années 80 Compil  - Années 80 Compil CD 7
DYEAR=2010
DGENRE=Country
TTITLE0=Jean-Pierre Mader - Jalousie
TTITLE1=Sabrina - Boys
TTITLE2=Opus - Live is life
TTITLE3=Traks - Long train runnin'
TTITLE4=Ryan Paris - Dolce vita
TTITLE5=One o One - Rock to the beat
TTITLE6=Regrets and Agathe - Je ne veux pas rentrer chez moi seule
TTITLE7=Muriel Dacq - Tropique
TTITLE8=Betty Miranda - Take to the top
TTITLE9=Blossom Child - I pray
TTITLE10=Dennis Edwards - Don't look any further
TTITLE11=Scotch - Take me up
TTITLE12=Valérie Dore - The night
TTITLE13=Karen Chéryl -  A l'envers, à l'endroit
TTITLE14=Hong Kong Syndikat - Concrete and clay
EXTD=
EXTT0=
EXTT1=
EXTT2=
EXTT3=
EXTT4=
EXTT5=
EXTT6=
EXTT7=
EXTT8=
EXTT9=
EXTT10=
EXTT11=
EXTT12=
EXTT13=
EXTT14=
PLAYORDER=
